<?xml version="1.0" encoding="UTF-8" ?>
<!DOCTYPE svg PUBLIC "-//W3C//DTD SVG 1.1//EN" "http://www.w3.org/Graphics/SVG/1.1/DTD/svg11.dtd">
<svg width="235pt" height="523pt" viewBox="0 0 235 523" version="1.1" xmlns="http://www.w3.org/2000/svg">
<g id="#353539ff">
<path fill="#353539" opacity="1.00" d=" M 32.08 10.06 C 33.48 6.48 36.67 4.15 39.61 1.89 C 43.05 4.69 46.61 7.58 50.92 8.91 C 59.02 11.40 67.58 11.75 75.99 11.96 C 91.67 12.20 107.34 11.52 123.02 11.30 C 127.13 11.32 131.31 11.55 135.23 12.91 C 140.44 14.73 145.04 18.34 147.91 23.07 C 149.68 25.96 151.04 29.07 152.55 32.09 C 156.52 33.27 160.34 34.94 163.71 37.37 C 153.54 40.60 143.73 45.39 135.62 52.40 C 137.70 53.54 139.95 55.46 142.45 54.34 C 148.13 52.47 153.45 49.64 159.15 47.81 C 159.06 49.26 158.97 50.71 158.89 52.15 C 159.84 52.46 160.80 52.77 161.76 53.07 C 161.28 54.41 160.80 55.74 160.33 57.08 C 161.39 57.87 162.45 58.66 163.50 59.45 C 163.84 60.88 164.19 62.31 164.54 63.74 C 169.95 62.06 175.58 60.79 181.29 61.42 C 180.42 61.48 178.69 61.62 177.83 61.68 C 179.18 66.80 180.66 71.88 181.94 77.02 C 184.38 86.82 185.20 96.95 185.38 107.02 C 185.52 119.69 184.42 132.40 181.56 144.75 C 179.77 152.38 177.86 160.07 174.37 167.14 C 164.49 153.71 156.25 139.18 148.96 124.22 C 151.78 122.01 154.79 119.80 156.55 116.59 C 159.48 111.28 160.35 105.01 159.77 99.02 C 159.32 94.81 157.79 90.40 154.38 87.68 C 151.43 85.31 146.86 85.62 144.13 88.18 C 140.92 91.06 139.20 95.12 137.27 98.88 C 132.38 85.89 126.66 73.19 122.75 59.85 C 114.10 60.66 105.66 62.75 97.09 64.12 C 82.39 66.35 67.81 69.31 53.04 71.12 C 44.55 72.11 36.14 74.09 27.56 74.08 C 21.62 73.71 15.23 72.50 10.84 68.14 C 6.22 63.77 4.68 57.19 4.57 51.03 C 4.12 37.45 9.17 24.53 14.15 12.15 C 19.12 16.72 24.37 21.16 30.79 23.53 C 30.93 19.04 30.39 14.33 32.08 10.06 Z" />
<path fill="#353539" opacity="1.00" d=" M 90.67 102.10 C 92.11 100.62 93.40 98.90 95.23 97.88 C 97.40 97.33 99.57 98.54 100.81 100.29 C 104.20 104.79 105.28 111.06 103.49 116.41 C 102.71 118.96 100.02 121.29 97.27 120.06 C 92.93 118.03 91.66 113.01 90.90 108.71 C 92.89 108.19 95.70 108.86 96.85 106.71 C 96.90 105.28 96.69 103.85 96.56 102.43 C 94.60 102.33 92.64 102.22 90.67 102.10 Z" />
<path fill="#353539" opacity="1.00" d=" M 42.73 110.89 C 44.30 109.97 45.77 108.06 47.80 108.75 C 50.70 110.01 52.07 113.24 52.64 116.17 C 53.13 119.15 53.36 122.38 52.16 125.24 C 51.23 127.34 48.33 128.11 46.49 126.73 C 43.83 124.80 43.42 121.30 42.55 118.38 C 44.11 117.78 45.67 117.18 47.24 116.58 C 47.20 115.50 47.14 114.43 47.04 113.36 C 45.69 112.40 44.19 111.68 42.73 110.89 Z" />
<path fill="#353539" opacity="1.00" d=" M 96.16 166.18 C 101.68 163.65 107.88 162.28 113.94 163.25 C 119.27 164.06 123.91 168.09 125.65 173.17 C 126.39 175.33 126.78 177.59 127.25 179.82 C 115.02 180.91 103.26 184.56 91.62 188.24 C 84.40 187.71 77.78 184.24 70.85 182.37 C 78.47 175.83 87.01 170.32 96.16 166.18 Z" />
<path fill="#353539" opacity="1.00" d=" M 108.21 244.77 C 110.39 241.50 112.87 238.43 115.59 235.59 C 117.91 238.46 120.25 241.33 122.59 244.18 C 120.91 248.63 118.28 253.00 118.57 257.92 C 118.91 266.62 120.00 275.26 120.74 283.94 C 121.93 297.32 122.50 310.75 123.96 324.11 C 124.90 332.38 125.15 340.70 125.83 348.99 C 122.12 354.21 118.54 359.53 114.31 364.34 C 111.65 360.45 108.93 356.60 106.20 352.76 C 104.97 350.86 103.41 348.91 103.41 346.54 C 103.38 342.28 104.08 338.06 104.43 333.82 C 106.66 309.21 108.92 284.59 111.14 259.98 C 111.88 254.70 110.09 249.60 108.21 244.77 Z" />
<path fill="#353539" opacity="1.00" d=" M 106.00 379.42 C 123.74 379.89 141.42 377.77 158.88 374.87 C 161.53 404.20 163.57 433.58 165.72 462.94 C 166.63 473.70 166.89 484.49 167.75 495.25 C 168.02 499.77 167.95 504.30 167.83 508.83 C 163.34 510.59 158.75 512.12 153.98 512.94 C 144.75 514.59 135.35 515.86 125.95 515.25 C 122.42 514.92 118.64 514.51 115.70 512.33 C 113.79 510.95 112.76 508.50 113.17 506.17 C 113.77 502.22 116.66 499.00 119.93 496.91 C 123.93 494.48 128.66 493.70 133.22 493.11 C 138.45 492.98 143.68 493.05 148.91 493.24 C 145.36 459.31 140.88 425.49 137.26 391.57 C 123.37 391.61 109.48 391.69 95.59 392.06 C 95.68 400.37 96.44 408.65 96.73 416.95 C 98.12 442.26 98.70 467.61 98.85 492.96 C 98.65 495.71 98.66 498.68 97.17 501.11 C 92.86 503.38 87.83 503.46 83.08 503.84 C 75.47 504.14 67.81 504.38 60.23 503.49 C 57.21 503.02 54.01 502.47 51.53 500.57 C 50.18 499.03 49.89 496.87 49.16 495.02 C 51.08 491.54 52.91 487.57 56.70 485.76 C 64.23 481.83 73.02 482.88 81.20 482.97 C 80.19 468.67 79.81 454.33 78.42 440.06 C 77.56 418.98 75.14 398.00 74.63 376.91 C 85.06 378.05 95.49 379.48 106.00 379.42 Z" />
</g>
<g id="#ffdfa9ff">
<path fill="#ffdfa9" opacity="1.00" d=" M 163.71 37.37 C 170.22 36.58 176.97 36.06 183.36 37.88 C 191.26 40.15 198.37 45.27 202.74 52.26 C 214.64 71.07 224.28 91.46 230.05 112.99 C 234.45 128.95 235.31 146.11 230.97 162.18 C 225.66 181.89 214.69 199.66 201.36 214.95 C 197.05 207.54 191.81 200.76 186.86 193.78 C 197.73 182.01 206.70 167.86 209.71 151.91 C 212.47 137.23 209.36 122.18 204.63 108.24 C 200.10 94.68 193.63 81.86 186.63 69.42 C 185.05 66.63 183.18 64.01 181.29 61.42 C 175.58 60.79 169.95 62.06 164.54 63.74 C 164.19 62.31 163.84 60.88 163.50 59.45 C 162.45 58.66 161.39 57.87 160.33 57.08 C 160.80 55.74 161.28 54.41 161.76 53.07 C 160.80 52.77 159.84 52.46 158.89 52.15 C 158.97 50.71 159.06 49.26 159.15 47.81 C 153.45 49.64 148.13 52.47 142.45 54.34 C 139.95 55.46 137.70 53.54 135.62 52.40 C 143.73 45.39 153.54 40.60 163.71 37.37 Z" />
<path fill="#ffdfa9" opacity="1.00" d=" M 97.09 64.12 C 105.66 62.75 114.10 60.66 122.75 59.85 C 126.66 73.19 132.38 85.89 137.27 98.88 C 139.20 95.12 140.92 91.06 144.13 88.18 C 146.86 85.62 151.43 85.31 154.38 87.68 C 157.79 90.40 159.32 94.81 159.77 99.02 C 160.35 105.01 159.48 111.28 156.55 116.59 C 154.79 119.80 151.78 122.01 148.96 124.22 C 156.25 139.18 164.49 153.71 174.37 167.14 C 171.88 172.25 169.30 177.35 166.04 182.02 C 156.68 195.31 143.67 205.84 129.08 212.90 C 121.97 216.37 114.13 217.71 106.44 219.27 C 113.77 221.81 121.55 222.40 129.25 222.09 C 129.26 223.34 129.26 224.59 129.26 225.85 C 125.35 228.46 121.64 231.49 117.27 233.31 C 115.40 234.23 113.40 233.17 111.68 232.39 C 108.07 230.57 104.72 228.30 101.29 226.17 C 101.32 223.53 101.31 220.89 101.27 218.26 C 83.52 216.08 67.28 206.74 54.71 194.29 C 50.17 189.92 46.92 184.42 44.63 178.59 C 48.05 176.91 51.96 175.37 53.92 171.88 C 56.12 168.32 55.50 163.98 55.26 160.03 C 49.80 160.50 44.35 161.19 38.86 161.27 C 32.05 160.62 24.71 158.28 20.66 152.39 C 17.62 148.19 17.51 142.81 17.44 137.83 C 22.75 136.20 28.26 135.41 33.77 134.78 C 32.39 126.25 31.05 117.71 30.14 109.12 C 28.88 97.48 27.42 85.81 27.56 74.08 C 36.14 74.09 44.55 72.11 53.04 71.12 C 67.81 69.31 82.39 66.35 97.09 64.12 M 90.67 102.10 C 92.64 102.22 94.60 102.33 96.56 102.43 C 96.69 103.85 96.90 105.28 96.85 106.71 C 95.70 108.86 92.89 108.19 90.90 108.71 C 91.66 113.01 92.93 118.03 97.27 120.06 C 100.02 121.29 102.71 118.96 103.49 116.41 C 105.28 111.06 104.20 104.79 100.81 100.29 C 99.57 98.54 97.40 97.33 95.23 97.88 C 93.40 98.90 92.11 100.62 90.67 102.10 M 42.73 110.89 C 44.19 111.68 45.69 112.40 47.04 113.36 C 47.14 114.43 47.20 115.50 47.24 116.58 C 45.67 117.18 44.11 117.78 42.55 118.38 C 43.42 121.30 43.83 124.80 46.49 126.73 C 48.33 128.11 51.23 127.34 52.16 125.24 C 53.36 122.38 53.13 119.15 52.64 116.17 C 52.07 113.24 50.70 110.01 47.80 108.75 C 45.77 108.06 44.30 109.97 42.73 110.89 M 96.16 166.18 C 87.01 170.32 78.47 175.83 70.85 182.37 C 77.78 184.24 84.40 187.71 91.62 188.24 C 99.02 191.26 107.10 192.18 115.04 192.35 C 118.32 192.20 122.22 192.19 124.61 189.56 C 126.84 186.85 126.72 183.10 127.25 179.82 C 126.78 177.59 126.39 175.33 125.65 173.17 C 123.91 168.09 119.27 164.06 113.94 163.25 C 107.88 162.28 101.68 163.65 96.16 166.18 Z" />
<path fill="#ffdfa9" opacity="1.00" d=" M 61.85 297.87 C 67.54 300.41 73.52 302.21 79.32 304.47 C 73.51 327.67 70.47 351.47 68.07 375.24 C 67.65 379.14 67.08 383.04 67.09 386.98 C 67.11 390.99 68.48 394.80 69.41 398.66 C 68.31 398.67 67.21 398.69 66.11 398.71 C 65.63 402.99 64.87 407.26 63.32 411.29 C 62.37 409.62 61.46 407.95 60.58 406.26 C 60.06 407.60 59.53 408.95 58.99 410.30 C 58.11 408.99 57.25 407.67 56.39 406.36 C 55.56 407.89 54.73 409.42 53.87 410.94 C 53.11 409.37 52.36 407.80 51.62 406.24 C 51.21 407.26 50.80 408.29 50.39 409.33 C 49.70 409.55 48.34 409.98 47.66 410.20 C 47.27 401.24 48.19 392.30 48.72 383.37 C 51.10 354.62 54.79 325.88 61.85 297.87 Z" />
</g>
<g id="#f0ba7dff">
<path fill="#f0ba7d" opacity="1.00" d=" M 38.86 161.27 C 44.35 161.19 49.80 160.50 55.26 160.03 C 55.50 163.98 56.12 168.32 53.92 171.88 C 51.96 175.37 48.05 176.91 44.63 178.59 C 42.29 172.97 40.64 167.09 38.86 161.27 Z" />
<path fill="#f0ba7d" opacity="1.00" d=" M 106.44 219.27 C 114.13 217.71 121.97 216.37 129.08 212.90 C 129.17 215.96 129.23 219.02 129.25 222.09 C 121.55 222.40 113.77 221.81 106.44 219.27 Z" />
</g>
<g id="#e18256ff">
<path fill="#e18256" opacity="1.00" d=" M 91.62 188.24 C 103.26 184.56 115.02 180.91 127.25 179.82 C 126.72 183.10 126.84 186.85 124.61 189.56 C 122.22 192.19 118.32 192.20 115.04 192.35 C 107.10 192.18 99.02 191.26 91.62 188.24 Z" />
</g>
<g id="#f0bb7eff">
<path fill="#f0bb7e" opacity="1.00" d=" M 185.02 195.72 C 185.64 195.08 186.25 194.43 186.86 193.78 C 191.81 200.76 197.05 207.54 201.36 214.95 C 200.23 216.30 199.11 217.66 198.00 219.02 C 193.31 211.45 189.70 203.29 185.02 195.72 Z" />
</g>
<g id="#f8f6e4ff">
<path fill="#f8f6e4" opacity="1.00" d=" M 151.95 221.02 C 163.97 214.01 175.12 205.50 185.02 195.72 C 189.70 203.29 193.31 211.45 198.00 219.02 C 198.62 220.07 199.24 221.13 199.87 222.19 C 187.76 236.18 172.10 246.63 155.67 254.90 C 156.47 288.60 157.36 322.31 158.25 356.02 C 158.41 362.30 158.36 368.60 158.88 374.87 C 141.42 377.77 123.74 379.89 106.00 379.42 C 95.49 379.48 85.06 378.05 74.63 376.91 C 74.65 368.56 75.56 360.25 76.04 351.92 C 77.27 335.84 78.37 319.75 79.50 303.67 C 79.62 303.02 79.86 301.71 79.98 301.06 C 81.57 291.73 83.34 282.39 83.88 272.92 C 81.52 278.10 79.55 283.44 78.02 288.91 C 76.98 292.69 75.30 296.26 73.14 299.52 C 69.44 298.66 65.74 297.83 62.03 297.08 C 65.78 281.07 70.84 265.36 77.32 250.25 C 80.98 241.95 85.05 233.79 90.24 226.34 C 93.92 226.29 97.60 226.24 101.29 226.17 C 104.72 228.30 108.07 230.57 111.68 232.39 C 113.40 233.17 115.40 234.23 117.27 233.31 C 121.64 231.49 125.35 228.46 129.26 225.85 C 133.16 225.80 137.07 225.96 140.96 225.64 C 145.02 225.33 148.50 222.98 151.95 221.02 M 108.21 244.77 C 110.09 249.60 111.88 254.70 111.14 259.98 C 108.92 284.59 106.66 309.21 104.43 333.82 C 104.08 338.06 103.38 342.28 103.41 346.54 C 103.41 348.91 104.97 350.86 106.20 352.76 C 108.93 356.60 111.65 360.45 114.31 364.34 C 118.54 359.53 122.12 354.21 125.83 348.99 C 125.15 340.70 124.90 332.38 123.96 324.11 C 122.50 310.75 121.93 297.32 120.74 283.94 C 120.00 275.26 118.91 266.62 118.57 257.92 C 118.28 253.00 120.91 248.63 122.59 244.18 C 120.25 241.33 117.91 238.46 115.59 235.59 C 112.87 238.43 110.39 241.50 108.21 244.77 Z" />
</g>
<g id="#dedcd4ff">
<path fill="#dedcd4" opacity="1.00" d=" M 78.02 288.91 C 79.55 283.44 81.52 278.10 83.88 272.92 C 83.34 282.39 81.57 291.73 79.98 301.06 C 77.70 300.55 75.42 300.04 73.14 299.52 C 75.30 296.26 76.98 292.69 78.02 288.91 Z" />
</g>
<g id="#f1c188ff">
<path fill="#f1c188" opacity="1.00" d=" M 62.03 297.08 C 65.74 297.83 69.44 298.66 73.14 299.52 C 75.42 300.04 77.70 300.55 79.98 301.06 C 79.86 301.71 79.62 303.02 79.50 303.67 L 79.32 304.47 C 73.52 302.21 67.54 300.41 61.85 297.87 L 62.03 297.08 Z" />
</g>
<g id="#809496ff">
<path fill="#809496" opacity="1.00" d=" M 98.85 492.96 C 110.30 492.34 121.77 492.80 133.22 493.11 C 128.66 493.70 123.93 494.48 119.93 496.91 C 116.66 499.00 113.77 502.22 113.17 506.17 C 112.76 508.50 113.79 510.95 115.70 512.33 C 118.64 514.51 122.42 514.92 125.95 515.25 C 135.35 515.86 144.75 514.59 153.98 512.94 C 158.75 512.12 163.34 510.59 167.83 508.83 C 167.95 504.30 168.02 499.77 167.75 495.25 C 179.25 495.91 190.68 497.62 201.91 500.14 C 206.62 501.38 211.60 502.50 215.56 505.50 C 217.02 506.26 216.90 508.05 216.51 509.41 C 214.45 511.72 211.42 512.78 208.60 513.81 C 199.04 516.94 189.01 518.22 179.07 519.48 C 161.91 521.68 144.59 522.07 127.34 523.00 L 89.67 523.00 C 76.09 522.16 62.47 522.15 48.94 520.73 C 35.79 519.35 22.58 517.85 9.80 514.32 C 7.07 513.48 4.21 512.65 1.96 510.83 C 0.60 509.79 0.04 507.86 0.78 506.30 C 3.38 503.26 7.44 502.19 11.12 501.09 C 23.56 497.78 36.41 496.51 49.16 495.02 C 49.89 496.87 50.18 499.03 51.53 500.57 C 54.01 502.47 57.21 503.02 60.23 503.49 C 67.81 504.38 75.47 504.14 83.08 503.84 C 87.83 503.46 92.86 503.38 97.17 501.11 C 98.66 498.68 98.65 495.71 98.85 492.96 Z" />
</g>
</svg>
