<?xml version="1.0" encoding="UTF-8" ?>
<!DOCTYPE svg PUBLIC "-//W3C//DTD SVG 1.1//EN" "http://www.w3.org/Graphics/SVG/1.1/DTD/svg11.dtd">
<svg width="848pt" height="479pt" viewBox="0 0 848 479" version="1.1" xmlns="http://www.w3.org/2000/svg">
<g id="#000000ff">
<path fill="#000000" opacity="1.00" d=" M 238.49 0.00 L 242.52 0.00 C 250.93 0.99 259.44 0.43 267.85 1.46 C 276.96 2.29 285.87 4.43 294.83 6.19 C 302.84 7.77 310.63 10.25 318.36 12.85 C 353.46 25.19 385.65 45.74 411.66 72.34 C 431.27 92.00 447.11 115.39 458.28 140.81 C 463.17 150.94 466.33 161.78 469.62 172.50 C 472.82 183.08 474.28 194.08 477.13 204.74 C 483.41 205.20 489.71 204.87 496.00 204.92 C 510.34 204.96 524.68 204.86 539.02 204.99 C 541.56 205.00 544.10 204.86 546.65 204.71 C 546.67 183.47 546.63 162.23 546.64 141.00 C 546.69 136.04 546.22 131.03 547.02 126.11 C 547.45 123.15 549.76 120.58 552.67 119.85 C 555.04 119.24 557.52 119.27 559.96 119.25 C 574.31 119.43 588.67 119.32 603.02 119.29 C 606.42 119.43 610.37 119.41 612.98 121.96 C 615.29 124.32 615.27 127.88 615.41 130.97 C 615.32 155.85 615.30 180.74 615.37 205.63 C 645.58 205.71 675.79 205.61 706.00 205.66 C 710.06 205.72 714.13 205.78 718.20 205.53 C 717.12 203.46 715.81 201.50 714.10 199.91 C 707.77 193.90 701.72 187.61 695.52 181.47 C 692.19 178.13 688.22 175.50 684.98 172.07 C 682.71 169.71 681.16 166.40 681.75 163.08 C 682.17 159.99 684.26 157.52 686.37 155.38 C 696.73 145.41 706.72 135.07 716.94 124.96 C 720.10 122.07 723.88 118.18 728.61 119.43 C 732.46 120.87 734.98 124.37 737.89 127.11 C 767.35 156.65 796.88 186.12 826.37 215.62 C 831.57 220.76 836.63 226.04 841.95 231.05 C 843.60 232.71 845.41 234.33 846.45 236.47 C 847.73 239.58 847.06 243.34 844.76 245.80 C 838.89 252.57 831.95 258.30 825.83 264.84 C 821.07 270.09 815.57 274.60 810.89 279.93 C 800.90 289.92 790.83 299.83 780.94 309.91 C 777.16 313.49 773.33 317.02 769.86 320.91 C 765.46 325.83 760.29 329.98 755.83 334.83 C 753.59 337.25 751.28 339.61 748.86 341.85 C 743.64 346.65 739.01 352.06 733.66 356.72 C 731.49 358.57 728.94 360.40 725.96 360.33 C 723.72 360.40 721.91 358.92 720.39 357.48 C 708.75 345.51 696.86 333.78 685.01 322.02 C 683.26 320.14 681.37 317.84 681.77 315.09 C 682.23 310.97 685.42 307.97 688.12 305.12 C 698.36 294.77 708.96 284.80 718.94 274.20 C 690.63 274.19 662.31 274.18 634.00 274.17 C 628.01 274.18 622.02 273.90 616.05 274.32 C 615.53 277.51 615.24 280.73 615.30 283.97 C 615.43 304.65 615.23 325.33 615.42 346.01 C 615.33 348.80 615.43 351.72 614.30 354.34 C 613.04 356.82 610.25 358.06 607.62 358.43 C 603.10 359.02 598.53 358.66 594.00 358.69 C 582.65 358.69 571.30 358.61 559.96 358.77 C 557.53 358.74 555.07 358.78 552.72 358.16 C 549.83 357.37 547.42 354.89 547.00 351.88 C 546.19 346.63 546.72 341.29 546.64 336.00 C 546.61 315.39 546.69 294.78 546.64 274.17 C 540.12 273.34 533.55 273.81 527.00 273.74 C 513.00 273.69 498.99 273.83 484.99 273.66 C 482.13 273.61 479.29 273.85 476.46 274.19 C 474.82 287.04 471.42 299.55 467.94 311.99 C 462.50 329.15 455.63 345.96 446.33 361.41 C 437.87 375.52 427.97 388.77 416.81 400.87 C 410.40 408.44 402.75 414.79 395.29 421.29 C 378.77 435.04 360.74 447.09 341.24 456.21 C 320.47 466.31 297.95 472.36 275.20 475.98 C 263.88 477.69 252.43 478.16 241.00 478.34 C 232.66 478.49 224.36 477.55 216.04 477.14 C 210.99 476.89 205.98 476.17 201.01 475.25 C 188.19 473.07 175.37 470.46 163.09 466.09 C 155.32 463.36 147.48 460.69 140.17 456.86 C 133.58 453.42 126.76 450.42 120.36 446.63 C 78.56 421.56 43.85 384.50 22.63 340.54 C 15.75 324.83 9.59 308.69 6.29 291.81 C 3.85 280.66 2.66 269.30 1.47 257.96 C 0.40 236.08 0.63 213.92 5.31 192.43 C 7.78 179.41 11.22 166.56 16.09 154.23 C 27.32 124.11 45.74 97.03 67.94 73.94 C 98.67 41.97 137.85 17.37 181.24 7.14 C 196.53 3.24 212.23 0.65 228.04 0.66 C 231.53 0.65 235.01 0.31 238.49 0.00 M 221.48 69.64 C 212.46 70.74 203.54 72.54 194.70 74.62 C 167.51 81.82 142.31 96.40 122.53 116.41 C 104.60 133.30 90.02 153.90 81.03 176.89 C 78.34 184.59 75.73 192.35 74.13 200.37 C 72.50 208.48 70.51 216.59 70.28 224.90 C 69.41 243.70 69.67 262.86 74.74 281.12 C 82.25 313.19 100.67 342.12 124.93 364.17 C 132.68 371.56 141.13 378.22 150.24 383.87 C 164.97 393.52 181.40 400.58 198.58 404.50 C 205.68 406.25 212.83 407.90 220.13 408.50 C 241.04 410.22 262.35 409.70 282.79 404.57 C 290.57 402.33 298.45 400.24 305.83 396.82 C 325.92 388.48 344.19 375.91 359.44 360.43 C 378.88 341.93 393.85 318.67 402.25 293.17 C 407.40 278.50 409.27 262.97 410.51 247.55 C 411.23 235.28 410.12 223.00 408.32 210.86 C 407.31 204.49 406.29 198.09 404.19 191.97 C 399.21 174.30 391.28 157.41 380.45 142.56 C 364.56 120.27 343.90 101.17 319.72 88.19 C 306.42 80.89 291.99 75.70 277.13 72.67 C 258.93 68.35 240.03 68.44 221.48 69.64 Z" />
</g>
</svg>
