<?xml version="1.0" encoding="UTF-8" ?>
<!DOCTYPE svg PUBLIC "-//W3C//DTD SVG 1.1//EN" "http://www.w3.org/Graphics/SVG/1.1/DTD/svg11.dtd">
<svg width="575pt" height="574pt" viewBox="0 0 575 574" version="1.1" xmlns="http://www.w3.org/2000/svg">
<g id="#000000ff">
<path fill="#000000" opacity="1.00" d=" M 398.35 10.08 C 397.99 4.76 402.61 0.14 407.96 0.65 C 459.98 0.61 512.02 0.62 564.04 0.64 C 569.21 0.38 574.45 4.44 574.01 9.93 C 574.15 61.98 574.05 114.03 574.06 166.08 C 574.70 171.39 570.48 176.35 565.05 176.15 C 548.35 176.38 531.62 176.25 514.92 176.21 C 509.96 176.64 505.39 172.70 505.44 167.67 C 504.86 151.36 505.83 135.00 505.01 118.70 C 480.21 142.25 456.41 166.94 432.16 191.08 C 433.60 193.53 435.13 195.93 436.86 198.18 C 487.86 269.48 493.66 369.98 451.83 446.91 C 415.95 511.55 350.66 561.45 276.49 571.28 C 234.58 576.84 190.92 573.12 151.45 557.39 C 105.33 538.67 66.14 504.73 38.48 463.61 C 12.43 424.41 -0.39 376.96 0.96 330.01 C 1.15 281.29 17.32 232.71 46.91 193.94 C 81.17 148.16 130.90 113.15 187.23 101.14 C 246.73 88.42 311.46 97.33 363.59 129.39 C 370.37 133.30 376.56 138.11 383.16 142.27 C 406.42 120.23 428.52 96.89 451.52 74.53 C 453.19 72.96 454.64 71.18 456.07 69.39 C 439.70 69.23 423.33 69.55 406.97 69.30 C 402.07 69.42 397.92 64.94 398.30 60.07 C 398.36 43.41 398.25 26.74 398.35 10.08 M 231.40 164.45 C 185.46 165.59 141.59 188.27 111.94 223.01 C 78.33 259.32 64.41 311.35 71.88 359.89 C 76.23 395.67 93.69 429.47 119.54 454.47 C 140.11 475.89 166.41 492.01 195.16 499.70 C 219.93 506.05 246.15 507.24 271.32 502.60 C 318.26 495.02 359.29 464.28 384.91 424.93 C 407.92 389.62 415.16 345.40 408.05 304.14 C 403.14 272.67 387.84 243.16 366.15 219.96 C 346.02 197.78 320.34 180.24 291.53 171.59 C 272.17 165.38 251.64 163.56 231.40 164.45 Z" />
</g>
</svg>
