<?xml version="1.0" encoding="UTF-8" ?>
<!DOCTYPE svg PUBLIC "-//W3C//DTD SVG 1.1//EN" "http://www.w3.org/Graphics/SVG/1.1/DTD/svg11.dtd">
<svg width="479pt" height="701pt" viewBox="0 0 479 701" version="1.1" xmlns="http://www.w3.org/2000/svg">
<g id="#000000ff">
<path fill="#000000" opacity="1.00" d=" M 197.54 4.34 C 217.15 0.67 237.21 0.56 257.07 1.36 C 264.97 1.66 272.76 3.09 280.56 4.23 C 305.01 7.86 328.55 16.34 350.46 27.62 C 367.29 36.80 383.03 47.92 397.32 60.70 C 428.13 88.28 453.05 123.09 466.45 162.40 C 468.86 168.83 470.52 175.50 472.03 182.19 C 476.03 197.47 478.41 213.23 478.35 229.05 C 478.37 232.21 478.71 235.36 479.00 238.51 L 479.00 242.49 C 478.68 245.97 478.33 249.45 478.32 252.95 C 478.30 264.44 476.92 275.91 474.40 287.11 C 467.19 326.02 448.96 362.48 423.89 392.94 C 416.10 402.70 407.10 411.40 398.00 419.92 C 376.97 438.52 352.57 453.20 326.36 463.23 C 314.15 467.47 301.78 471.34 289.09 473.88 C 284.19 475.07 279.06 475.40 274.33 477.24 C 274.05 479.13 274.00 481.05 274.00 482.96 C 274.14 499.31 274.05 515.65 274.07 532.00 C 274.12 536.86 273.74 541.75 274.37 546.58 C 278.24 546.91 282.12 546.64 286.00 546.65 C 306.34 546.61 326.68 546.72 347.01 546.57 C 349.52 546.63 352.11 546.60 354.52 547.46 C 359.08 549.22 359.89 554.65 359.73 558.95 C 359.61 573.64 359.66 588.33 359.71 603.02 C 359.56 606.43 359.59 610.37 357.04 612.99 C 354.68 615.30 351.12 615.28 348.03 615.41 C 327.36 615.28 306.68 615.37 286.00 615.34 C 282.12 615.34 278.24 615.07 274.37 615.42 C 274.05 617.58 274.01 619.77 274.01 621.96 C 274.18 643.98 273.97 666.01 274.13 688.03 C 274.10 690.27 274.10 692.55 273.62 694.76 C 273.04 697.50 270.57 699.63 267.85 700.10 C 265.26 700.57 262.62 700.49 260.00 700.49 C 247.67 700.29 235.34 700.54 223.01 700.36 C 219.25 700.27 215.50 700.62 211.77 701.00 L 210.99 701.00 C 209.05 699.26 206.82 697.56 205.92 695.04 C 205.17 692.44 205.24 689.71 205.20 687.05 C 205.36 667.70 205.19 648.35 205.29 629.00 C 205.28 624.47 205.61 619.89 204.76 615.41 C 200.85 615.07 196.92 615.34 193.00 615.34 C 175.00 615.37 157.00 615.30 139.00 615.37 C 134.76 615.33 130.44 615.75 126.25 614.84 C 122.45 613.82 120.10 609.89 120.30 606.07 C 120.25 590.36 120.44 574.64 120.24 558.93 C 120.27 555.53 120.30 551.60 122.98 549.09 C 125.28 546.66 128.88 546.70 131.97 546.59 C 152.31 546.71 172.66 546.61 193.00 546.65 C 196.91 546.64 200.84 546.91 204.75 546.58 C 205.69 541.44 205.22 536.19 205.27 531.00 C 205.29 515.33 205.19 499.65 205.34 483.98 C 205.32 481.48 205.29 478.95 204.69 476.52 C 196.59 475.12 188.43 473.95 180.51 471.63 C 143.65 462.76 108.97 444.74 80.90 419.21 C 71.50 411.56 63.68 402.26 55.81 393.12 C 39.25 372.95 25.67 350.29 16.15 325.98 C 10.86 311.91 6.93 297.33 4.30 282.53 C 1.61 269.20 0.91 255.56 0.67 241.99 C 0.60 237.33 0.74 232.67 1.08 228.02 C 1.80 219.29 1.82 210.47 3.61 201.87 C 5.67 188.99 8.35 176.18 12.64 163.85 C 15.46 155.83 18.18 147.72 22.14 140.17 C 25.59 133.58 28.57 126.75 32.37 120.36 C 56.68 79.83 92.25 46.00 134.44 24.58 C 154.43 15.06 175.61 7.75 197.54 4.34 M 220.49 70.64 C 205.78 72.54 191.06 75.58 177.31 81.27 C 158.06 88.75 140.40 100.16 125.41 114.34 C 102.14 135.69 83.83 163.04 75.63 193.72 C 73.24 203.31 70.87 212.98 70.27 222.88 C 68.79 244.42 69.54 266.46 75.71 287.28 C 82.33 311.14 94.70 333.37 111.23 351.80 C 115.09 356.25 119.49 360.21 123.55 364.49 C 137.65 377.98 154.07 389.02 171.90 396.97 C 187.99 403.73 205.06 408.48 222.52 409.64 C 231.40 410.92 240.41 410.87 249.36 410.45 C 263.38 409.16 277.55 407.63 290.93 403.01 C 314.30 396.05 335.59 383.06 353.56 366.68 C 375.47 347.05 392.80 321.98 401.95 293.92 C 403.90 288.14 404.99 282.14 406.44 276.23 C 409.61 263.76 410.10 250.81 410.05 238.01 C 409.87 231.30 409.85 224.56 408.95 217.91 C 406.38 200.86 402.34 183.86 394.78 168.28 C 386.86 151.30 375.83 135.78 362.60 122.53 C 358.67 118.46 354.53 114.59 350.47 110.65 C 332.77 95.16 311.82 83.22 289.17 76.75 C 276.70 73.42 264.02 70.34 251.04 70.17 C 240.86 69.64 230.65 69.89 220.49 70.64 Z" />
</g>
</svg>
