<?xml version="1.0" encoding="UTF-8" ?>
<!DOCTYPE svg PUBLIC "-//W3C//DTD SVG 1.1//EN" "http://www.w3.org/Graphics/SVG/1.1/DTD/svg11.dtd">
<svg width="512pt" height="513pt" viewBox="0 0 512 513" version="1.1" xmlns="http://www.w3.org/2000/svg">
<g id="#00a5cbff">
<path fill="#00a5cb" opacity="1.00" d=" M 252.17 0.00 L 254.57 0.00 C 254.98 0.00 255.80 0.01 256.21 0.02 C 255.53 9.00 255.57 18.00 255.67 27.00 C 255.66 67.33 255.67 107.67 255.66 148.00 C 255.89 155.20 255.63 162.40 255.50 169.60 C 252.58 169.96 249.67 170.42 246.76 170.81 C 234.34 171.72 222.11 174.28 210.23 177.97 C 203.76 179.46 197.70 182.18 191.80 185.17 C 192.87 189.57 193.85 193.99 194.80 198.42 C 201.10 195.94 207.29 193.17 213.58 190.68 C 227.16 186.06 241.54 183.77 255.89 184.02 C 255.43 198.68 255.77 213.34 255.67 228.00 C 255.76 255.57 255.47 283.15 255.82 310.72 C 238.82 309.37 223.55 298.79 213.92 285.06 C 207.87 276.53 204.73 266.44 201.54 256.61 C 195.08 235.81 190.10 214.51 187.28 192.90 C 185.05 176.45 182.43 160.05 180.25 143.58 C 177.92 128.13 175.14 112.66 174.88 97.00 C 174.86 86.11 176.27 74.94 181.11 65.07 C 185.09 56.91 191.48 49.71 199.75 45.75 C 205.25 43.28 211.11 41.77 216.98 40.46 C 218.45 35.62 220.79 31.12 223.60 26.93 C 217.01 27.68 210.33 28.15 203.94 30.07 C 191.61 33.67 180.13 41.22 173.13 52.15 C 167.61 60.83 164.23 70.77 162.81 80.93 C 160.22 98.60 162.04 116.53 164.66 134.08 C 165.88 143.98 168.27 153.71 169.13 163.67 C 170.17 174.55 171.76 185.37 173.96 196.08 C 176.70 209.69 178.77 223.43 182.03 236.93 C 184.88 249.23 188.65 261.29 192.63 273.25 C 194.55 279.01 196.83 284.71 200.16 289.82 C 206.80 300.26 216.38 308.30 225.27 316.75 C 229.87 321.26 233.47 326.66 236.98 332.03 C 240.20 336.93 242.67 342.38 243.64 348.19 C 245.70 360.00 245.69 372.09 248.12 383.84 C 249.68 392.13 252.86 399.98 256.08 407.73 C 256.00 414.15 255.50 420.57 255.62 426.99 C 255.73 447.66 255.62 468.33 255.68 489.00 C 255.76 497.00 255.71 505.00 255.39 513.00 L 249.69 513.00 C 230.57 512.28 211.42 510.05 192.89 505.19 C 168.35 498.97 144.69 489.16 123.11 475.92 C 92.13 457.31 65.41 431.82 44.88 402.12 C 26.79 375.73 13.61 345.97 6.45 314.78 C 2.73 297.89 0.54 280.67 0.00 263.38 L 0.00 249.63 C 0.83 232.14 2.63 214.63 6.87 197.61 C 17.34 153.38 39.86 112.11 71.25 79.25 C 106.47 42.17 153.03 16.05 203.06 5.43 C 219.21 2.03 235.68 0.37 252.17 0.00 M 231.57 27.71 C 225.31 29.43 220.54 35.52 220.61 42.05 C 220.36 49.19 226.04 55.89 233.06 56.97 C 239.07 57.97 245.55 54.95 248.57 49.64 C 251.68 44.24 251.06 36.86 246.76 32.26 C 243.12 27.96 236.97 26.17 231.57 27.71 M 154.44 209.42 C 138.31 223.51 124.29 240.12 113.72 258.78 C 102.12 279.74 94.89 303.81 96.84 327.94 C 101.22 327.53 105.59 327.12 109.97 326.75 C 109.96 320.70 110.29 314.65 110.77 308.63 C 113.01 291.52 119.28 275.03 128.42 260.43 C 139.26 242.51 153.63 226.88 169.96 213.84 C 169.27 208.83 168.69 203.81 167.57 198.87 C 163.01 202.15 158.53 205.56 154.44 209.42 M 102.39 336.67 C 90.71 338.63 80.42 346.79 75.51 357.52 C 72.09 364.59 71.42 372.76 72.88 380.42 C 75.56 393.42 85.87 404.49 98.63 408.14 C 105.63 410.08 113.19 410.01 120.13 407.89 C 129.37 404.99 137.15 398.16 141.66 389.64 C 145.13 383.38 146.06 376.00 145.44 368.95 C 144.41 356.81 136.54 345.69 125.77 340.16 C 118.68 336.29 110.28 335.43 102.39 336.67 Z" />
</g>
<g id="#0190b0ff">
<path fill="#0190b0" opacity="1.00" d=" M 256.21 0.02 C 261.82 0.08 267.41 0.44 273.02 0.62 C 300.19 2.07 326.99 8.50 352.21 18.61 C 394.45 35.61 431.90 64.25 459.54 100.44 C 475.94 121.72 488.66 145.76 497.69 171.05 C 506.91 197.18 511.57 224.83 512.00 252.51 L 512.00 259.49 C 511.63 279.97 508.92 300.38 503.94 320.25 C 494.89 354.80 478.78 387.53 456.56 415.51 C 427.33 452.51 387.87 481.50 343.46 497.50 C 316.65 507.47 288.09 512.56 259.51 513.00 L 255.39 513.00 C 255.71 505.00 255.76 497.00 255.68 489.00 C 255.62 468.33 255.73 447.66 255.62 426.99 C 255.50 420.57 256.00 414.15 256.08 407.73 C 260.00 414.88 264.79 421.65 270.89 427.12 C 281.54 436.64 295.71 442.10 309.99 442.29 C 324.09 442.59 338.16 439.05 350.73 432.72 C 358.43 428.86 365.85 424.11 371.58 417.58 C 386.16 401.21 397.59 381.77 403.32 360.52 C 407.95 342.88 408.53 324.27 405.49 306.30 C 398.99 263.16 373.44 223.57 337.66 198.85 C 336.90 202.94 335.69 207.00 335.55 211.18 C 335.48 214.41 338.46 216.43 340.56 218.44 C 360.33 234.79 375.09 256.70 384.42 280.50 C 386.60 286.18 388.36 292.01 389.84 297.90 C 395.78 321.55 394.35 347.22 384.71 369.71 C 378.63 384.19 369.37 397.23 358.18 408.20 C 350.95 415.29 341.83 420.20 332.29 423.42 C 319.12 427.84 304.37 428.72 291.20 423.85 C 282.70 420.92 275.17 415.32 270.04 407.92 C 264.98 400.99 262.91 392.52 260.36 384.47 C 257.80 376.31 255.47 367.79 256.38 359.15 C 257.24 351.48 259.94 344.13 263.23 337.19 C 265.78 331.79 269.30 326.72 274.12 323.12 C 279.65 318.95 285.83 315.65 290.91 310.89 C 297.76 304.75 302.63 296.76 306.52 288.51 C 311.02 279.08 315.17 269.46 318.41 259.52 C 325.04 238.94 328.34 217.52 332.17 196.30 C 334.89 179.85 337.23 163.34 339.51 146.82 C 341.83 129.41 343.00 111.88 344.45 94.38 C 345.34 81.40 344.72 67.85 339.09 55.90 C 334.57 45.79 326.23 37.09 315.61 33.49 C 307.28 30.54 298.33 30.87 289.63 30.81 C 292.10 35.08 293.85 39.73 294.84 44.56 C 301.05 45.04 307.41 45.43 313.28 47.70 C 321.47 51.10 327.15 58.84 329.73 67.13 C 332.35 75.27 332.12 83.95 331.77 92.39 C 331.32 101.46 330.95 110.53 330.20 119.58 C 328.23 138.48 326.25 157.39 323.38 176.18 C 321.62 188.67 318.88 200.99 316.80 213.43 C 313.01 235.94 307.61 258.57 296.86 278.88 C 292.94 285.75 289.20 292.90 283.68 298.66 C 276.20 305.74 266.40 311.12 255.82 310.72 C 255.47 283.15 255.76 255.57 255.67 228.00 C 255.77 213.34 255.43 198.68 255.89 184.02 C 270.29 184.01 284.66 186.75 298.09 191.93 C 303.62 194.18 309.10 196.58 314.55 199.03 C 315.55 194.27 316.35 189.48 316.97 184.66 C 310.60 182.15 304.39 179.23 297.81 177.28 C 281.42 171.80 263.97 169.95 246.76 170.81 C 249.67 170.42 252.58 169.96 255.50 169.60 C 255.63 162.40 255.89 155.20 255.66 148.00 C 255.67 107.67 255.66 67.33 255.67 27.00 C 255.57 18.00 255.53 9.00 256.21 0.02 M 272.49 27.68 C 265.53 29.51 260.50 36.82 261.59 44.00 C 262.32 51.87 270.16 58.11 277.99 57.10 C 286.11 56.43 292.64 48.19 291.24 40.11 C 290.29 31.47 280.84 25.18 272.49 27.68 Z" />
</g>
<g id="#ffffffff">
<path fill="#ffffff" opacity="1.00" d=" M 203.94 30.07 C 210.33 28.15 217.01 27.68 223.60 26.93 C 220.79 31.12 218.45 35.62 216.98 40.46 C 211.11 41.77 205.25 43.28 199.75 45.75 C 191.48 49.71 185.09 56.91 181.11 65.07 C 176.27 74.94 174.86 86.11 174.88 97.00 C 175.14 112.66 177.92 128.13 180.25 143.58 C 182.43 160.05 185.05 176.45 187.28 192.90 C 190.10 214.51 195.08 235.81 201.54 256.61 C 204.73 266.44 207.87 276.53 213.92 285.06 C 223.55 298.79 238.82 309.37 255.82 310.72 C 266.40 311.12 276.20 305.74 283.68 298.66 C 289.20 292.90 292.94 285.75 296.86 278.88 C 307.61 258.57 313.01 235.94 316.80 213.43 C 318.88 200.99 321.62 188.67 323.38 176.18 C 326.25 157.39 328.23 138.48 330.20 119.58 C 330.95 110.53 331.32 101.46 331.77 92.39 C 332.12 83.95 332.35 75.27 329.73 67.13 C 327.15 58.84 321.47 51.10 313.28 47.70 C 307.41 45.43 301.05 45.04 294.84 44.56 C 293.85 39.73 292.10 35.08 289.63 30.81 C 298.33 30.87 307.28 30.54 315.61 33.49 C 326.23 37.09 334.57 45.79 339.09 55.90 C 344.72 67.85 345.34 81.40 344.45 94.38 C 343.00 111.88 341.83 129.41 339.51 146.82 C 337.23 163.34 334.89 179.85 332.17 196.30 C 328.34 217.52 325.04 238.94 318.41 259.52 C 315.17 269.46 311.02 279.08 306.52 288.51 C 302.63 296.76 297.76 304.75 290.91 310.89 C 285.83 315.65 279.65 318.95 274.12 323.12 C 269.30 326.72 265.78 331.79 263.23 337.19 C 259.94 344.13 257.24 351.48 256.38 359.15 C 255.47 367.79 257.80 376.31 260.36 384.47 C 262.91 392.52 264.98 400.99 270.04 407.92 C 275.17 415.32 282.70 420.92 291.20 423.85 C 304.37 428.72 319.12 427.84 332.29 423.42 C 341.83 420.20 350.95 415.29 358.18 408.20 C 369.37 397.23 378.63 384.19 384.71 369.71 C 394.35 347.22 395.78 321.55 389.84 297.90 C 388.36 292.01 386.60 286.18 384.42 280.50 C 375.09 256.70 360.33 234.79 340.56 218.44 C 338.46 216.43 335.48 214.41 335.55 211.18 C 335.69 207.00 336.90 202.94 337.66 198.85 C 373.44 223.57 398.99 263.16 405.49 306.30 C 408.53 324.27 407.95 342.88 403.32 360.52 C 397.59 381.77 386.16 401.21 371.58 417.58 C 365.85 424.11 358.43 428.86 350.73 432.72 C 338.16 439.05 324.09 442.59 309.99 442.29 C 295.71 442.10 281.54 436.64 270.89 427.12 C 264.79 421.65 260.00 414.88 256.08 407.73 C 252.86 399.98 249.68 392.13 248.12 383.84 C 245.69 372.09 245.70 360.00 243.64 348.19 C 242.67 342.38 240.20 336.93 236.98 332.03 C 233.47 326.66 229.87 321.26 225.27 316.75 C 216.38 308.30 206.80 300.26 200.16 289.82 C 196.83 284.71 194.55 279.01 192.63 273.25 C 188.65 261.29 184.88 249.23 182.03 236.93 C 178.77 223.43 176.70 209.69 173.96 196.08 C 171.76 185.37 170.17 174.55 169.13 163.67 C 168.27 153.71 165.88 143.98 164.66 134.08 C 162.04 116.53 160.22 98.60 162.81 80.93 C 164.23 70.77 167.61 60.83 173.13 52.15 C 180.13 41.22 191.61 33.67 203.94 30.07 Z" />
<path fill="#ffffff" opacity="1.00" d=" M 231.57 27.71 C 236.97 26.17 243.12 27.96 246.76 32.26 C 251.06 36.86 251.68 44.24 248.57 49.64 C 245.55 54.95 239.07 57.97 233.06 56.97 C 226.04 55.89 220.36 49.19 220.61 42.05 C 220.54 35.52 225.31 29.43 231.57 27.71 Z" />
<path fill="#ffffff" opacity="1.00" d=" M 272.49 27.68 C 280.84 25.18 290.29 31.47 291.24 40.11 C 292.64 48.19 286.11 56.43 277.99 57.10 C 270.16 58.11 262.32 51.87 261.59 44.00 C 260.50 36.82 265.53 29.51 272.49 27.68 Z" />
<path fill="#ffffff" opacity="1.00" d=" M 210.23 177.97 C 222.11 174.28 234.34 171.72 246.76 170.81 C 263.97 169.95 281.42 171.80 297.81 177.28 C 304.39 179.23 310.60 182.15 316.97 184.66 C 316.35 189.48 315.55 194.27 314.55 199.03 C 309.10 196.58 303.62 194.18 298.09 191.93 C 284.66 186.75 270.29 184.01 255.89 184.02 C 241.54 183.77 227.16 186.06 213.58 190.68 C 207.29 193.17 201.10 195.94 194.80 198.42 C 193.85 193.99 192.87 189.57 191.80 185.17 C 197.70 182.18 203.76 179.46 210.23 177.97 Z" />
<path fill="#ffffff" opacity="1.00" d=" M 154.44 209.42 C 158.53 205.56 163.01 202.15 167.57 198.87 C 168.69 203.81 169.27 208.83 169.96 213.84 C 153.63 226.88 139.26 242.51 128.42 260.43 C 119.28 275.03 113.01 291.52 110.77 308.63 C 110.29 314.65 109.96 320.70 109.97 326.75 C 105.59 327.12 101.22 327.53 96.84 327.94 C 94.89 303.81 102.12 279.74 113.72 258.78 C 124.29 240.12 138.31 223.51 154.44 209.42 Z" />
<path fill="#ffffff" opacity="1.00" d=" M 102.39 336.67 C 110.28 335.43 118.68 336.29 125.77 340.16 C 136.54 345.69 144.41 356.81 145.44 368.95 C 146.06 376.00 145.13 383.38 141.66 389.64 C 137.15 398.16 129.37 404.99 120.13 407.89 C 113.19 410.01 105.63 410.08 98.63 408.14 C 85.87 404.49 75.56 393.42 72.88 380.42 C 71.42 372.76 72.09 364.59 75.51 357.52 C 80.42 346.79 90.71 338.63 102.39 336.67 Z" />
</g>
</svg>
